<svg xmlns="http://www.w3.org/2000/svg" viewBox="0 0 800 600" width="100%" height="100%">
  <style>
    .st0{fill:#3B82F6;}
    .st1{fill:#1E40AF;}
    .st2{fill:#BFDBFE;}
    .st3{fill:#EFF6FF;}
    .st4{fill:#1D4ED8;}
    .st5{fill:#FFFFFF;}
    .st6{fill:#DBEAFE;}
  </style>
  <g id="background">
    <path class="st2" d="M0,0h800v600H0V0z"/>
    <path class="st3" d="M399.5,139.7c110.8,0,200.6,89.8,200.6,200.6S510.3,541,399.5,541S198.9,451.2,198.9,340.4S288.7,139.7,399.5,139.7z"/>
  </g>
  <g id="code">
    <path class="st0" d="M320.7,236.8l-80.4,80.4c-6.5,6.5-6.5,17.1,0,23.6l80.4,80.4c6.5,6.5,17.1,6.5,23.6,0c6.5-6.5,6.5-17.1,0-23.6l-68.6-68.6l68.6-68.6c6.5-6.5,6.5-17.1,0-23.6C337.8,230.3,327.2,230.3,320.7,236.8z"/>
    <path class="st0" d="M479.3,236.8c-6.5-6.5-17.1-6.5-23.6,0c-6.5,6.5-6.5,17.1,0,23.6l68.6,68.6l-68.6,68.6c-6.5,6.5-6.5,17.1,0,23.6c6.5,6.5,17.1,6.5,23.6,0l80.4-80.4c6.5-6.5,6.5-17.1,0-23.6L479.3,236.8z"/>
    <path class="st0" d="M425.9,205.1c-8.5-3.2-18,1.2-21.1,9.7l-54.7,147c-3.2,8.5,1.2,18,9.7,21.1c8.5,3.2,18-1.2,21.1-9.7l54.7-147C438.7,217.7,434.4,208.2,425.9,205.1z"/>
  </g>
  <g id="rocket">
    <path class="st1" d="M481.3,417.5c0,0-0.3,20.2-24.8,20.2c-24.5,0-24.8-20.2-24.8-20.2l3.8-86.9h42.1L481.3,417.5z"/>
    <path class="st4" d="M454.3,287.2c-10.1,0-19.4,5.8-23.8,14.8c-0.6,1.2-1,2.5-1.5,3.7c-0.9,2.3-1.6,4.8-2,7.3c-0.8,4.4-1,9-0.7,13.6l2.3,39.1h52.3l2.3-39.1c0.3-4.5,0.2-9.2-0.7-13.6c-0.4-2.5-1.1-4.9-2-7.3c-0.5-1.3-1-2.5-1.5-3.7C473.7,293,464.4,287.2,454.3,287.2z"/>
    <ellipse class="st5" cx="454.3" cy="342.3" rx="6.8" ry="6.8"/>
    <path class="st4" d="M427.2,330.2l-26.7,14.5c-3.1,1.7-7,0.5-8.7-2.6c-1.7-3.1-0.5-7,2.6-8.7l26.7-14.5c3.1-1.7,7-0.5,8.7,2.6C431.5,324.6,430.3,328.5,427.2,330.2z"/>
    <path class="st4" d="M481.5,330.2l26.7,14.5c3.1,1.7,7,0.5,8.7-2.6c1.7-3.1,0.5-7-2.6-8.7l-26.7-14.5c-3.1-1.7-7-0.5-8.7,2.6C477.1,324.6,478.3,328.5,481.5,330.2z"/>
    <path class="st6" d="M455.1,308.5c-2.9,0-5.3-2.4-5.3-5.3v-22.2c0-2.9,2.4-5.3,5.3-5.3c2.9,0,5.3,2.4,5.3,5.3v22.2C460.4,306.1,458,308.5,455.1,308.5z"/>
  </g>
  <g id="text">
    <path class="st1" d="M267.8,463.4h13.2l4.3,25.3l5.9-25.3h11.2l5.9,25.5l4.4-25.5h13l-9.9,44.7h-13.3l-5.7-23.6l-5.6,23.6h-13.6L267.8,463.4z"/>
    <path class="st1" d="M334.2,463.4h35.5v11h-22.3v5.6h20.6v10.5h-20.6v6.5h22.8v11h-36V463.4z"/>
    <path class="st1" d="M398.1,474.5h-15.3v-11.1h43.8v11.1h-15.3v33.6h-13.2V474.5z"/>
    <path class="st1" d="M433.7,463.4h13.2v18h16.5v-18h13.2v44.7h-13.2v-15.4h-16.5v15.4h-13.2V463.4z"/>
    <path class="st1" d="M504.5,463.4h13.2v33.6h20.6v11.1h-33.8V463.4z"/>
  </g>
</svg> 